RobotoAvar2-VANG13-opsz144.ufo
<glyph name="M" format="2">
  <advance width="1790"/>
  <unicode hex="004D"/>
  <anchor x="727.0" y="0" name="bottom"/>
  <anchor x="1063.14408627882" y="1456" name="top"/>
  <outline>
    <contour>
      <point x="2.0" y="0.0" type="line"/>
      <point x="338.1440862788199" y="1456.0" type="line"/>
      <point x="586.1440862788199" y="1456.0" type="line"/>
      <point x="736" y="361" type="line" smooth="yes"/>
      <point x="740" y="331"/>
      <point x="747" y="266"/>
      <point x="748" y="236" type="qcurve"/>
      <point x="756" y="236" type="line"/>
      <point x="771" y="266"/>
      <point x="807" y="331"/>
      <point x="826" y="361" type="qcurve" smooth="yes"/>
      <point x="1540.14408627882" y="1456.0" type="line"/>
      <point x="1788.14408627882" y="1456.0" type="line"/>
      <point x="1452.0" y="0.0" type="line"/>
      <point x="1266.0" y="0.0" type="line"/>
      <point x="1538" y="1050" type="line" smooth="yes"/>
      <point x="1546" y="1080"/>
      <point x="1564" y="1155"/>
      <point x="1575" y="1185" type="qcurve"/>
      <point x="1567" y="1185" type="line"/>
      <point x="1554" y="1155"/>
      <point x="1513" y="1080"/>
      <point x="1494" y="1050" type="qcurve" smooth="yes"/>
      <point x="808.0" y="0.0" type="line"/>
      <point x="642.0" y="0.0" type="line"/>
      <point x="500" y="1050" type="line" smooth="yes"/>
      <point x="496" y="1080"/>
      <point x="488" y="1155"/>
      <point x="489" y="1185" type="qcurve"/>
      <point x="481" y="1185" type="line"/>
      <point x="478" y="1155"/>
      <point x="464" y="1080"/>
      <point x="456" y="1050" type="qcurve" smooth="yes"/>
      <point x="184.0" y="0.0" type="line"/>
    </contour>
  </outline>
</glyph>
<glyph name="N" format="2">
  <advance width="1460"/>
  <unicode hex="004E"/>
  <anchor x="562.0" y="0" name="bottom"/>
  <anchor x="898.1440862788199" y="1456" name="top"/>
  <anchor x="1029.0" y="0" name="engtail"/>
  <outline>
    <contour>
      <point x="2.0" y="0.0" type="line"/>
      <point x="338.1440862788199" y="1456.0" type="line"/>
      <point x="538.1440862788199" y="1456.0" type="line"/>
      <point x="932" y="436" type="line" smooth="yes"/>
      <point x="944" y="406"/>
      <point x="966" y="346"/>
      <point x="973" y="321" type="qcurve"/>
      <point x="981" y="321" type="line"/>
      <point x="987" y="351"/>
      <point x="1002" y="426"/>
      <point x="1010" y="456" type="qcurve" smooth="yes"/>
      <point x="1270.14408627882" y="1456.0" type="line"/>
      <point x="1458.14408627882" y="1456.0" type="line"/>
      <point x="1122.0" y="0.0" type="line"/>
      <point x="922.0" y="0.0" type="line"/>
      <point x="528" y="1020" type="line" smooth="yes"/>
      <point x="516" y="1050"/>
      <point x="495" y="1110"/>
      <point x="487" y="1135" type="qcurve"/>
      <point x="480" y="1135" type="line"/>
      <point x="474" y="1105"/>
      <point x="458" y="1030"/>
      <point x="450" y="1000" type="qcurve" smooth="yes"/>
      <point x="190.0" y="0.0" type="line"/>
    </contour>
  </outline>
</glyph>
<glyph name="W" format="2">
  <advance width="1812"/>
  <unicode hex="0057"/>
  <anchor x="738.0" y="0" name="bottom"/>
  <anchor x="1074.14408627882" y="1456" name="top"/>
  <outline>
    <contour>
      <point x="237.69131808874437" y="-10.0" type="line"/>
      <point x="218.14408627881988" y="1456.0" type="line"/>
      <point x="401" y="1456" type="line"/>
      <point x="370" y="378" type="line" smooth="yes"/>
      <point x="369" y="344"/>
      <point x="367" y="303"/>
      <point x="364" y="270" type="qcurve"/>
      <point x="374" y="270" type="line"/>
      <point x="385" y="303"/>
      <point x="402" y="344"/>
      <point x="419" y="378" type="qcurve" smooth="yes"/>
      <point x="949" y="1456" type="line"/>
      <point x="1143" y="1456" type="line"/>
      <point x="1165" y="378" type="line" smooth="yes"/>
      <point x="1166" y="344"/>
      <point x="1163" y="303"/>
      <point x="1160" y="270" type="qcurve"/>
      <point x="1169" y="270" type="line"/>
      <point x="1180" y="303"/>
      <point x="1198" y="344"/>
      <point x="1214" y="378" type="qcurve" smooth="yes"/>
      <point x="1734" y="1456" type="line"/>
      <point x="1930.14408627882" y="1456.0" type="line"/>
      <point x="1233.6913180887443" y="-10.0" type="line"/>
      <point x="1047.6913180887443" y="-10.0" type="line"/>
      <point x="1016" y="1070" type="line" smooth="yes"/>
      <point x="1014" y="1104"/>
      <point x="1015" y="1165"/>
      <point x="1018" y="1198" type="qcurve"/>
      <point x="1010" y="1198" type="line"/>
      <point x="997" y="1165"/>
      <point x="970" y="1104"/>
      <point x="954" y="1070" type="qcurve" smooth="yes"/>
      <point x="423.6913180887444" y="-10.0" type="line"/>
    </contour>
  </outline>
</glyph>
<glyph name="v" format="2">
  <advance width="942"/>
  <unicode hex="0076"/>
  <anchor x="303.0" y="0" name="bottom"/>
  <anchor x="545.8733370640924" y="1052" name="top"/>
  <outline>
    <contour>
      <point x="74.8733370640924" y="1052.0" type="line"/>
      <point x="249" y="1052" type="line"/>
      <point x="329" y="350" type="line" smooth="yes"/>
      <point x="334" y="310"/>
      <point x="332" y="240"/>
      <point x="332" y="220" type="qcurve"/>
      <point x="338" y="220" type="line"/>
      <point x="349" y="240"/>
      <point x="388" y="311"/>
      <point x="412" y="350" type="qcurve" smooth="yes"/>
      <point x="835" y="1052" type="line"/>
      <point x="1016.8733370640923" y="1052.0" type="line"/>
      <point x="374.0" y="0.0" type="line"/>
      <point x="232.0" y="0.0" type="line"/>
    </contour>
  </outline>
</glyph>
<glyph name="w" format="2">
  <advance width="1546"/>
  <unicode hex="0077"/>
  <anchor x="605.0" y="0" name="bottom"/>
  <anchor x="837" y="1052" name="top"/>
  <outline>
    <contour>
      <point x="99.87333706409242" y="1052.0" type="line"/>
      <point x="280" y="1052" type="line"/>
      <point x="295" y="360" type="line" smooth="yes"/>
      <point x="296" y="320"/>
      <point x="298" y="270"/>
      <point x="297" y="230" type="qcurve"/>
      <point x="303" y="230" type="line"/>
      <point x="320" y="270"/>
      <point x="344" y="320"/>
      <point x="367" y="360" type="qcurve" smooth="yes"/>
      <point x="750" y="1052" type="line"/>
      <point x="906" y="1052" type="line"/>
      <point x="979" y="360" type="line" smooth="yes"/>
      <point x="983" y="320"/>
      <point x="985" y="270"/>
      <point x="984" y="230" type="qcurve"/>
      <point x="990" y="230" type="line"/>
      <point x="1007" y="270"/>
      <point x="1028" y="320"/>
      <point x="1050" y="360" type="qcurve" smooth="yes"/>
      <point x="1426" y="1052" type="line"/>
      <point x="1595.8733370640923" y="1052.0" type="line"/>
      <point x="1028.0" y="0.0" type="line"/>
      <point x="883.0" y="0.0" type="line"/>
      <point x="810.9903699653829" y="680.0" type="line" smooth="yes"/>
      <point x="807.2250976104054" y="720.0"/>
      <point x="802.6945529004505" y="800.0"/>
      <point x="801.929280545473" y="840.0" type="qcurve"/>
      <point x="795.929280545473" y="840.0" type="line"/>
      <point x="776.6945529004505" y="800.0"/>
      <point x="735.2250976104054" y="720.0"/>
      <point x="712.9903699653829" y="680.0" type="qcurve" smooth="yes"/>
      <point x="327.0" y="0.0" type="line"/>
      <point x="182.0" y="0.0" type="line"/>
    </contour>
  </outline>
</glyph>
<glyph name="x" format="2">
  <advance width="978"/>
  <unicode hex="0078"/>
  <anchor x="321.0" y="0" name="bottom"/>
  <anchor x="563.8733370640924" y="1052" name="top"/>
  <anchor x="597.0" y="0" name="cy_descender"/>
  <outline>
    <contour>
      <point x="-141" y="0" type="line"/>
      <point x="393" y="582" type="line"/>
      <point x="404" y="582" type="line"/>
      <point x="809" y="1052" type="line"/>
      <point x="1012.8733370640923" y="1052.0" type="line"/>
      <point x="501.7402045047726" y="484.0" type="line"/>
      <point x="490.7402045047726" y="484.0" type="line"/>
      <point x="62.0" y="0.0" type="line"/>
    </contour>
    <contour>
      <point x="114.87333706409242" y="1052.0" type="line"/>
      <point x="298" y="1052" type="line"/>
      <point x="487" y="582" type="line"/>
      <point x="495" y="582" type="line"/>
      <point x="760" y="0" type="line"/>
      <point x="577.0" y="0.0" type="line"/>
      <point x="371.7402045047726" y="484.0" type="line"/>
      <point x="363.7402045047726" y="484.0" type="line"/>
    </contour>
  </outline>
</glyph>
<glyph name="y" format="2">
  <advance width="942"/>
  <unicode hex="0079"/>
  <anchor x="610.0" y="0" name="bottom"/>
  <anchor x="552.8733370640924" y="1052" name="top"/>
  <outline>
    <contour>
      <point x="-214.04116750823425" y="-416.0" type="qcurve"/>
      <point x="-177.5639933103953" y="-258.0" type="line"/>
      <point x="-153.4109388393998" y="-266.0"/>
      <point x="-91.71962075065542" y="-276.0"/>
      <point x="-61.71962075065542" y="-276.0" type="qcurve" smooth="yes"/>
      <point x="8.280379249344577" y="-276.0"/>
      <point x="137" y="-171"/>
      <point x="235" y="4" type="qcurve"/>
      <point x="236" y="5" type="line"/>
      <point x="84.8733370640924" y="1052.0" type="line"/>
      <point x="255" y="1052" type="line"/>
      <point x="329" y="360" type="line" smooth="yes"/>
      <point x="333" y="320"/>
      <point x="339" y="250"/>
      <point x="340" y="220" type="qcurve"/>
      <point x="346" y="220" type="line"/>
      <point x="362" y="250"/>
      <point x="400" y="320"/>
      <point x="424" y="360" type="qcurve" smooth="yes"/>
      <point x="831" y="1052" type="line"/>
      <point x="1016.8733370640923" y="1052.0" type="line"/>
      <point x="314.67845324242114" y="-140.0" type="line" smooth="yes"/>
      <point x="232.35690648484234" y="-280.0"/>
      <point x="31.341468669254482" y="-436.0"/>
      <point x="-88.65853133074552" y="-436.0" type="qcurve" smooth="yes"/>
      <point x="-128.65853133074552" y="-436.0"/>
      <point x="-188.34984941948989" y="-426.0"/>
    </contour>
  </outline>
</glyph>
<glyph name="periodcentered" format="2">
  <advance width="600"/>
  <unicode hex="00B7"/>
  <outline>
    <contour>
      <point x="180.92027515304676" y="749.0" type="qcurve" smooth="yes"/>
      <point x="192.23281651819934" y="798.0"/>
      <point x="272.3935898969888" y="868.0"/>
      <point x="332.3935898969888" y="868.0" type="qcurve" smooth="yes"/>
      <point x="392.3935898969887" y="868.0"/>
      <point x="440.23281651819934" y="798.0"/>
      <point x="428.92027515304676" y="749.0" type="qcurve" smooth="yes"/>
      <point x="417.6077337878942" y="700.0"/>
      <point x="337.4469604091048" y="630.0"/>
      <point x="277.4469604091048" y="630.0" type="qcurve" smooth="yes"/>
      <point x="217.4469604091048" y="630.0"/>
      <point x="169.60773378789418" y="700.0"/>
    </contour>
  </outline>
</glyph>
<glyph name="ordmasculine" format="2">
  <advance width="932"/>
  <unicode hex="00BA"/>
  <guideline x="287.96467747298715" y="1975" angle="0" identifier="Jnt0R9CyOf"/>
  <outline>
    <contour>
      <point x="196.79552334396232" y="1043.0" type="qcurve"/>
      <point x="215.49584682513296" y="1124.0" type="line"/>
      <point x="251.04954825846966" y="1278.0"/>
      <point x="481.99231829245673" y="1477.0"/>
      <point x="638.9923182924567" y="1477.0" type="qcurve" smooth="yes"/>
      <point x="796.9923182924567" y="1477.0"/>
      <point x="935.0495482584697" y="1278.0"/>
      <point x="899.495846825133" y="1124.0" type="qcurve"/>
      <point x="880.7955233439623" y="1043.0" type="line"/>
      <point x="845.2418219106256" y="889.0"/>
      <point x="616.5299200677641" y="691.0"/>
      <point x="459.5299200677641" y="691.0" type="qcurve" smooth="yes"/>
      <point x="301.5299200677641" y="691.0"/>
      <point x="161.24182191062562" y="889.0"/>
    </contour>
    <contour>
      <point x="378.49584682513296" y="1124.0" type="qcurve"/>
      <point x="359.79552334396226" y="1043.0" type="line"/>
      <point x="338.7865179515361" y="952.0"/>
      <point x="399.62059863421734" y="830.0"/>
      <point x="491.62059863421734" y="830.0" type="qcurve" smooth="yes"/>
      <point x="580.6205986342173" y="830.0"/>
      <point x="697.7865179515361" y="952.0"/>
      <point x="718.7955233439623" y="1043.0" type="qcurve"/>
      <point x="737.495846825133" y="1124.0" type="line"/>
      <point x="758.0431158353081" y="1213.0"/>
      <point x="696.4399033437523" y="1336.0"/>
      <point x="606.4399033437523" y="1336.0" type="qcurve" smooth="yes"/>
      <point x="516.4399033437523" y="1336.0"/>
      <point x="399.0431158353081" y="1213.0"/>
    </contour>
  </outline>
</glyph>
<glyph name="eth" format="2">
  <advance width="1114"/>
  <unicode hex="00F0"/>
  <outline>
    <contour>
      <point x="349.8225395212411" y="1316.0" type="qcurve"/>
      <point x="443.7614501013311" y="1476.0" type="line"/>
      <point x="763.446335766914" y="1401.0"/>
      <point x="1086.7890909208008" y="978.0"/>
      <point x="1007.1395649824815" y="633.0" type="qcurve"/>
      <point x="984.5144822521763" y="535.0" type="line"/>
      <point x="927.7209072352878" y="289.0"/>
      <point x="590.3826361774887" y="-20.0"/>
      <point x="388.38263617748873" y="-20.0" type="qcurve" smooth="yes"/>
      <point x="178.38263617748873" y="-20.0"/>
      <point x="-21.81992935172576" y="265.0"/>
      <point x="25.04631344676352" y="468.0" type="qcurve" smooth="yes"/>
      <point x="78.14599740564304" y="698.0"/>
      <point x="397.78909092080073" y="978.0"/>
      <point x="590.7890909208007" y="978.0" type="qcurve" smooth="yes"/>
      <point x="759.7890909208007" y="978.0"/>
      <point x="937.9202751530468" y="749.0"/>
      <point x="906.7530693510957" y="614.0" type="qcurve"/>
      <point x="837.7530693510957" y="614.0" type="line"/>
      <point x="852.9903699653829" y="680.0"/>
      <point x="742.6971258697151" y="826.0"/>
      <point x="599.6971258697151" y="826.0" type="qcurve" smooth="yes"/>
      <point x="453.69712586971514" y="826.0"/>
      <point x="248.90869679135585" y="632.0"/>
      <point x="211.04631344676352" y="468.0" type="qcurve" smooth="yes"/>
      <point x="182.64952593831924" y="345.0"/>
      <point x="286.47460122857433" y="132.0"/>
      <point x="427.47460122857433" y="132.0" type="qcurve" smooth="yes"/>
      <point x="555.4746012285743" y="132.0"/>
      <point x="758.8051533785795" y="363.0"/>
      <point x="798.5144822521763" y="535.0" type="qcurve" smooth="yes"/>
      <point x="821.6013013647325" y="635.0" type="line" smooth="yes"/>
      <point x="895.2482543337871" y="954.0"/>
      <point x="588.5852389069539" y="1250.0"/>
    </contour>
    <contour>
      <point x="1075.2077486679946" y="1322.0" type="line"/>
      <point x="425.4103141972089" y="1037.0" type="line"/>
      <point x="390.6540472346577" y="1168.0" type="line"/>
      <point x="1039.2206135143176" y="1452.0" type="line"/>
    </contour>
  </outline>
</glyph>
<glyph name="florin" format="2">
  <advance width="1024"/>
  <unicode hex="0192"/>
  <outline>
    <contour>
      <point x="903.6257445727467" y="882.0" type="line"/>
      <point x="870.8424614329167" y="740.0" type="line"/>
      <point x="131.8424614329167" y="740.0" type="line"/>
      <point x="164.62574457274667" y="882.0" type="line"/>
    </contour>
    <contour>
      <point x="412.62636921493754" y="111.0" type="line" smooth="yes"/>
      <point x="347.0598029352776" y="-173.0"/>
      <point x="80.1106004781289" y="-437.0"/>
      <point x="-165.8893995218711" y="-437.0" type="qcurve" smooth="yes"/>
      <point x="-196.8893995218711" y="-437.0"/>
      <point x="-248.27332218399215" y="-430.0"/>
      <point x="-273.9646402727365" y="-420.0" type="qcurve"/>
      <point x="-225.5652797950276" y="-271.0" type="line"/>
      <point x="-211.95048894178097" y="-277.0"/>
      <point x="-144.56656627965992" y="-284.0"/>
      <point x="-130.56656627965992" y="-284.0" type="qcurve" smooth="yes"/>
      <point x="-9.566566279659924" y="-284.0"/>
      <point x="173.8340806826813" y="-122.0"/>
      <point x="227.62636921493748" y="111.0" type="qcurve" smooth="yes"/>
      <point x="461.957583207384" y="1126.0" type="line" smooth="yes"/>
      <point x="502.35951665435755" y="1301.0"/>
      <point x="726.3010002037124" y="1487.0"/>
      <point x="883.3010002037124" y="1487.0" type="qcurve" smooth="yes"/>
      <point x="969.3010002037124" y="1487.0"/>
      <point x="1086.0649860740575" y="1434.0"/>
      <point x="1119.1389403402907" y="1404.0" type="qcurve"/>
      <point x="1004.663052627084" y="1259.0" type="line"/>
      <point x="972.8199665519764" y="1290.0"/>
      <point x="895.7460122857433" y="1320.0"/>
      <point x="848.7460122857433" y="1320.0" type="qcurve" smooth="yes"/>
      <point x="778.7460122857433" y="1320.0"/>
      <point x="669.5826659376892" y="1224.0"/>
      <point x="646.957583207384" y="1126.0" type="qcurve" smooth="yes"/>
    </contour>
  </outline>
</glyph>
<glyph name="circumflexcomb" format="2">
  <unicode hex="0302"/>
  <anchor x="74.8733370640924" y="1052" name="_top"/>
  <anchor x="185.92093699548826" y="1533" name="top"/>
  <outline>
    <contour>
      <point x="241.92093699548826" y="1533.0" type="line"/>
      <point x="416.6591931731871" y="1220.0" type="line"/>
      <point x="263.659193173187" y="1220.0" type="line"/>
      <point x="150.36723556215156" y="1379.0" type="line"/>
      <point x="-36.34080682681298" y="1220.0" type="line"/>
      <point x="-189.34080682681298" y="1220.0" type="line"/>
      <point x="129.92093699548826" y="1533.0" type="line"/>
    </contour>
  </outline>
</glyph>
<glyph name="ringcomb" format="2">
  <unicode hex="030A"/>
  <anchor x="74.8733370640924" y="1052" name="_top"/>
  <anchor x="212.23991078380243" y="1647" name="top"/>
  <outline>
    <contour>
      <point x="-111" y="1437" type="qcurve" smooth="yes"/>
      <point x="-111" y="1534"/>
      <point x="16" y="1658"/>
      <point x="113" y="1658" type="qcurve" smooth="yes"/>
      <point x="210" y="1658"/>
      <point x="337" y="1534"/>
      <point x="337" y="1437" type="qcurve" smooth="yes"/>
      <point x="337" y="1340"/>
      <point x="210" y="1215"/>
      <point x="113" y="1215" type="qcurve"/>
      <point x="16" y="1215"/>
      <point x="-111" y="1340"/>
    </contour>
    <contour>
      <point x="7" y="1437" type="qcurve" smooth="yes"/>
      <point x="7" y="1387"/>
      <point x="64" y="1327"/>
      <point x="113" y="1327" type="qcurve" smooth="yes"/>
      <point x="165" y="1327"/>
      <point x="219" y="1383"/>
      <point x="219" y="1437" type="qcurve" smooth="yes"/>
      <point x="219" y="1486"/>
      <point x="162" y="1546"/>
      <point x="113" y="1546" type="qcurve" smooth="yes"/>
      <point x="61" y="1546"/>
      <point x="7" y="1490"/>
    </contour>
  </outline>
</glyph>
<glyph name="brevebelowcomb" format="2">
  <unicode hex="032E"/>
  <anchor x="-168.0" y="0" name="_bottom"/>
  <anchor x="-274.89197249113573" y="-463" name="bottom"/>
  <outline>
    <contour>
      <point x="34.98584866904446" y="-143.0" type="qcurve"/>
      <point x="123.51896634826409" y="-197.0" type="line"/>
      <point x="65.66301542683331" y="-296.0"/>
      <point x="-148.89197249113573" y="-463.0"/>
      <point x="-274.89197249113573" y="-463.0" type="qcurve" smooth="yes"/>
      <point x="-387.89197249113573" y="-463.0"/>
      <point x="-533.338271057799" y="-309.0"/>
      <point x="-549.0192972694848" y="-195.0" type="qcurve"/>
      <point x="-437.01415133095554" y="-143.0" type="line"/>
      <point x="-415.17363822511265" y="-200.0"/>
      <point x="-316.02958914654334" y="-299.0"/>
      <point x="-237.02958914654337" y="-299.0" type="qcurve" smooth="yes"/>
      <point x="-153.02958914654337" y="-299.0"/>
      <point x="-15.097110989614862" y="-204.0"/>
    </contour>
  </outline>
</glyph>
<glyph name="Ze" format="2">
  <advance width="1260"/>
  <unicode hex="0417"/>
  <anchor x="480.0" y="0" name="bottom"/>
  <outline>
    <contour>
      <point x="501.9363376108255" y="134.0" type="qcurve" smooth="yes"/>
      <point x="674.9363376108255" y="134.0"/>
      <point x="868.7209072352878" y="289.0"/>
      <point x="898.9646402727365" y="420.0" type="qcurve" smooth="yes"/>
      <point x="926.668823207804" y="540.0"/>
      <point x="818.9903699653829" y="680.0"/>
      <point x="668.9903699653829" y="680.0" type="qcurve" smooth="yes"/>
      <point x="436.9903699653829" y="680.0" type="line"/>
      <point x="473.0058077809708" y="836.0" type="line"/>
      <point x="675.0058077809708" y="836.0" type="line" smooth="yes"/>
      <point x="825.0058077809708" y="836.0"/>
      <point x="986.2451655254094" y="962.6495726496"/>
      <point x="1012.1833054599804" y="1075.0" type="qcurve" smooth="yes"/>
      <point x="1039.5640896987475" y="1193.5992063492"/>
      <point x="923.2077486679946" y="1322.0"/>
      <point x="764.2077486679945" y="1322.0" type="qcurve" smooth="yes"/>
      <point x="605.2077486679945" y="1322.0"/>
      <point x="398.73186095478786" y="1177.0"/>
      <point x="362.94729133032547" y="1022.0" type="qcurve" smooth="yes"/>
      <point x="360.17687303681873" y="1010.0" type="line"/>
      <point x="168.17687303681873" y="1010.0" type="line"/>
      <point x="170.48555494807437" y="1020.0" type="line" smooth="yes"/>
      <point x="216.89006136431254" y="1221.0"/>
      <point x="540.0701320125868" y="1486.0"/>
      <point x="800.0701320125868" y="1486.0" type="qcurve" smooth="yes"/>
      <point x="1030.0701320125868" y="1486.0"/>
      <point x="1251.223372067694" y="1287.4158653846"/>
      <point x="1202.1833054599804" y="1075.0" type="qcurve" smooth="yes"/>
      <point x="1174.0204439994948" y="953.0132450331"/>
      <point x="1016.8768401583116" y="800.0598965509"/>
      <point x="919.3067707844325" y="768.0" type="qcurve"/>
      <point x="918.3832980199302" y="764.0" type="line"/>
      <point x="1020.9955159039123" y="732.0"/>
      <point x="1121.2861870303154" y="560.0"/>
      <point x="1088.9646402727365" y="420.0" type="qcurve" smooth="yes"/>
      <point x="1039.558847371866" y="206.0"/>
      <point x="700.0739542662332" y="-30.0"/>
      <point x="464.07395426623316" y="-30.0" type="qcurve" smooth="yes"/>
      <point x="214.0739542662331" y="-30.0"/>
      <point x="-36.90288901038514" y="204.0"/>
      <point x="21.275895153256783" y="456.0" type="qcurve" smooth="yes"/>
      <point x="23.584577064512416" y="466.0" type="line"/>
      <point x="215.58457706451242" y="466.0" type="line"/>
      <point x="213.27589515325678" y="456.0" type="line" smooth="yes"/>
      <point x="174.2591708530366" y="287.0"/>
      <point x="318.93633761082543" y="134.0"/>
    </contour>
  </outline>
</glyph>
<glyph name="Kabashkircyr" format="2">
  <advance width="1495"/>
  <unicode hex="04A0"/>
  <outline>
    <contour>
      <point x="1111.0" y="0.0" type="line"/>
      <point x="653.8424614329167" y="740.0" type="line"/>
      <point x="833.0045212963385" y="823.0" type="line"/>
      <point x="1347.0" y="0.0" type="line"/>
    </contour>
    <contour>
      <point x="518.6205986342173" y="830.0" type="line"/>
      <point x="732.6205986342173" y="830.0" type="line"/>
      <point x="1422.14408627882" y="1456.0" type="line"/>
      <point x="1639.14408627882" y="1456.0" type="line"/>
      <point x="774.1434244363784" y="672.0" type="line"/>
      <point x="482.1434244363784" y="672.0" type="line"/>
    </contour>
    <contour>
      <point x="231.0" y="0.0" type="line"/>
      <point x="530.6669120809809" y="1298.0" type="line"/>
      <point x="155.66691208098092" y="1298.0" type="line"/>
      <point x="192.14408627881988" y="1456.0" type="line"/>
      <point x="759.1440862788199" y="1456.0" type="line"/>
      <point x="423.0" y="0.0" type="line"/>
    </contour>
  </outline>
</glyph>
<glyph name="quotedblright" format="2">
  <advance width="830"/>
  <unicode hex="201D"/>
  <outline>
    <contour>
      <point x="486.14408627881994" y="1456.0" type="line"/>
      <point x="456.5929578147478" y="1328.0" type="line" smooth="yes"/>
      <point x="435.8148206134472" y="1238.0"/>
      <point x="297.71770962383226" y="1034.0"/>
      <point x="200.018672627294" y="966.0" type="qcurve"/>
      <point x="110.87205057946005" y="1039.0" type="line"/>
      <point x="173.10935119374722" y="1105.0"/>
      <point x="253.2000297602005" y="1244.0"/>
      <point x="271.90035324137114" y="1325.0" type="qcurve" smooth="yes"/>
      <point x="302.1440862788199" y="1456.0" type="line"/>
    </contour>
    <contour>
      <point x="906.1440862788199" y="1456.0" type="line"/>
      <point x="876.5929578147479" y="1328.0" type="line" smooth="yes"/>
      <point x="855.8148206134472" y="1238.0"/>
      <point x="717.7177096238322" y="1034.0"/>
      <point x="620.018672627294" y="966.0" type="qcurve"/>
      <point x="530.87205057946" y="1039.0" type="line"/>
      <point x="593.1093511937472" y="1105.0"/>
      <point x="673.2000297602006" y="1244.0"/>
      <point x="691.9003532413711" y="1325.0" type="qcurve" smooth="yes"/>
      <point x="722.1440862788199" y="1456.0" type="line"/>
    </contour>
  </outline>
</glyph>
<glyph name="minute" format="2">
  <advance width="654"/>
  <unicode hex="2032"/>
  <outline>
    <contour>
      <point x="154.55693624504283" y="964.0" type="line"/>
      <point x="586.9235099647528" y="1559.0" type="line"/>
      <point x="755.2206135143176" y="1452.0" type="line"/>
      <point x="267.0874809549978" y="884.0" type="line"/>
    </contour>
  </outline>
</glyph>
<glyph name="foursuperior" format="2">
  <advance width="751"/>
  <unicode hex="2074"/>
  <outline>
    <contour>
      <point x="427.9151292145175" y="697.0" type="line"/>
      <point x="481.2456813645226" y="928.0" type="line"/>
      <point x="486.7865179515361" y="952.0" type="line"/>
      <point x="572.2077486679945" y="1322.0" type="line"/>
      <point x="572.2077486679945" y="1322.0" type="line"/>
      <point x="277.17687303681873" y="1010.0" type="line"/>
      <point x="573.1768730368187" y="1010.0" type="line"/>
      <point x="597.1768730368187" y="1010.0" type="line"/>
      <point x="765.1768730368187" y="1010.0" type="line"/>
      <point x="735.1640081904956" y="880.0" type="line"/>
      <point x="89.16400819049557" y="880.0" type="line"/>
      <point x="112.71256368530294" y="982.0" type="line"/>
      <point x="609.3788139238425" y="1496.0" type="line"/>
      <point x="769.3788139238425" y="1496.0" type="line"/>
      <point x="584.9151292145175" y="697.0" type="line"/>
    </contour>
  </outline>
</glyph>
<glyph name="Hacyr-stroke" format="2">
  <advance width="1222"/>
  <outline>
    <contour>
      <point x="217.23538948746398" y="824.0" type="line"/>
      <point x="1049.235389487464" y="824.0" type="line"/>
      <point x="1010.9112697606206" y="658.0" type="line"/>
      <point x="178.91126976062054" y="658.0" type="line"/>
    </contour>
  </outline>
</glyph>
<glyph name="brevecomb-stack" format="2">
  <anchor x="166.75887713206652" y="1450" name="top"/>
  <anchor x="74.8733370640924" y="1052" name="_top"/>
  <outline>
    <contour>
      <point x="427.5370143333672" y="1540.0" type="qcurve"/>
      <point x="510.0701320125868" y="1486.0" type="line"/>
      <point x="452.214181091156" y="1387.0"/>
      <point x="238.65919317318702" y="1220.0"/>
      <point x="112.65919317318702" y="1220.0" type="qcurve" smooth="yes"/>
      <point x="-0.3408068268129796" y="1220.0"/>
      <point x="-146.01797358460186" y="1373.0"/>
      <point x="-161.69899979628764" y="1487.0" type="qcurve"/>
      <point x="-45.46298566663279" y="1540.0" type="line"/>
      <point x="-23.6224725607899" y="1483.0"/>
      <point x="72.52157651777935" y="1384.0"/>
      <point x="151.52157651777935" y="1384.0" type="qcurve" smooth="yes"/>
      <point x="235.52157651777935" y="1384.0"/>
      <point x="377.4540546747078" y="1479.0"/>
    </contour>
  </outline>
</glyph>
<glyph name="brevecomb.case" format="2">
  <anchor x="168.14408627881988" y="1456" name="_top"/>
  <anchor x="278.9608180190902" y="1936" name="top"/>
  <outline>
    <contour>
      <point x="561.9608180190902" y="1936.0" type="qcurve"/>
      <point x="646.0309128314263" y="1867.0" type="line"/>
      <point x="571.7119390431121" y="1753.0"/>
      <point x="329.389105800901" y="1600.0"/>
      <point x="201.389105800901" y="1600.0" type="qcurve"/>
      <point x="73.389105800901" y="1600.0"/>
      <point x="-98.28806095688788" y="1753.0"/>
      <point x="-119.96908716857365" y="1867.0" type="qcurve"/>
      <point x="-4.039181980909802" y="1936.0" type="line"/>
      <point x="24.416121978179717" y="1873.0"/>
      <point x="145.40583010112113" y="1769.0"/>
      <point x="240.40583010112113" y="1769.0" type="qcurve"/>
      <point x="335.4058301011211" y="1769.0"/>
      <point x="504.4161219781797" y="1873.0"/>
    </contour>
  </outline>
</glyph>
<glyph name="circumflexcomb-stack.case" format="2">
  <anchor x="168.14408627881988" y="1456" name="_top"/>
  <anchor x="261.8765718757985" y="1862" name="top"/>
  <anchor x="613.850842183152" y="1602" name="topright"/>
  <outline>
    <contour>
      <point x="335.8026176095654" y="1892.0" type="line"/>
      <point x="533.850842183152" y="1602.0" type="line"/>
      <point x="369.85084218315205" y="1602.0" type="line"/>
      <point x="232.47978436735428" y="1739.0" type="line"/>
      <point x="35.85084218315211" y="1602.0" type="line"/>
      <point x="-132.1491578168479" y="1602.0" type="line"/>
      <point x="191.8026176095654" y="1892.0" type="line"/>
    </contour>
  </outline>
</glyph>
<glyph name="commaaccentcomb.case" format="2">
  <anchor x="-168.0" y="0" name="_bottom"/>
  <anchor x="-306.52091467533785" y="-600" name="bottom"/>
  <outline>
    <contour>
      <point x="-484.82831010196116" y="-597.0" type="line"/>
      <point x="-291.7106153582292" y="-185.0" type="line"/>
      <point x="-77.24887897597804" y="-183.0" type="line"/>
      <point x="-310.52091467533785" y="-600.0" type="line"/>
    </contour>
  </outline>
</glyph>
<glyph name="dieresiscomb-stack.case" format="2">
  <anchor x="168.14408627881988" y="1456" name="_top"/>
  <anchor x="254.71965795090608" y="1831" name="top"/>
  <outline>
    <contour>
      <point x="-144" y="1717" type="qcurve" smooth="yes"/>
      <point x="-144" y="1772"/>
      <point x="-84" y="1831"/>
      <point x="-28" y="1831" type="qcurve" smooth="yes"/>
      <point x="25" y="1831"/>
      <point x="88" y="1768"/>
      <point x="88" y="1717" type="qcurve" smooth="yes"/>
      <point x="88" y="1663"/>
      <point x="29" y="1604"/>
      <point x="-28" y="1604" type="qcurve" smooth="yes"/>
      <point x="-81" y="1604"/>
      <point x="-144" y="1666"/>
    </contour>
    <contour>
      <point x="316" y="1717" type="qcurve" smooth="yes"/>
      <point x="316" y="1772"/>
      <point x="376" y="1831"/>
      <point x="432" y="1831" type="qcurve" smooth="yes"/>
      <point x="485" y="1831"/>
      <point x="548" y="1768"/>
      <point x="548" y="1717" type="qcurve" smooth="yes"/>
      <point x="548" y="1663"/>
      <point x="489" y="1604"/>
      <point x="432" y="1604" type="qcurve" smooth="yes"/>
      <point x="379" y="1604"/>
      <point x="316" y="1666"/>
    </contour>
  </outline>
</glyph>
<glyph name="hungarumlautcomb-stack" format="2">
  <anchor x="74.8733370640924" y="1052" name="_top"/>
  <anchor x="188.2296189067439" y="1543" name="top"/>
  <outline>
    <contour>
      <point x="-125.02569249239576" y="1295.0" type="line"/>
      <point x="127.2296189067439" y="1543.0" type="line"/>
      <point x="239.2958542651831" y="1435.0" type="line"/>
      <point x="-44.80254320906414" y="1218.0" type="line"/>
    </contour>
    <contour>
      <point x="184.97430750760424" y="1295.0" type="line"/>
      <point x="437.2296189067439" y="1543.0" type="line"/>
      <point x="549.2958542651832" y="1435.0" type="line"/>
      <point x="265.19745679093586" y="1218.0" type="line"/>
    </contour>
  </outline>
</glyph>
<glyph name="macroncomb-stack" format="2">
  <anchor x="74.8733370640924" y="1052" name="_top"/>
  <anchor x="150.82897194440267" y="1381" name="top"/>
  <outline>
    <contour>
      <point x="-181.1864658711852" y="1225.0" type="line"/>
      <point x="-145.17102805559733" y="1381.0" type="line"/>
      <point x="446.8289719444026" y="1381.0" type="line"/>
      <point x="410.8135341288148" y="1225.0" type="line"/>
    </contour>
  </outline>
</glyph>
